<svg width="32" height="32" viewBox="0 0 32 32" fill="none" xmlns="http://www.w3.org/2000/svg">
<path d="M16.0189 0.172854C7.27784 0.167636 0.187533 7.24944 0.182315 15.9905C0.177096 24.7316 7.2589 31.8219 16 31.8272C20.1994 31.834 24.2286 30.1675 27.1962 27.1962C30.165 24.23 31.8341 20.2061 31.8366 16.0095C31.8418 7.26838 24.76 0.178073 16.0189 0.172854ZM16.0194 30.2438C8.15271 30.2491 1.77125 23.8764 1.76584 16.0097C1.76053 8.14306 8.13339 1.7615 16 1.75619C19.7795 1.74942 23.4059 3.24907 26.0767 5.92326C28.7485 8.59253 30.251 12.2136 30.2535 15.9903C30.2589 23.8569 23.886 30.2384 16.0194 30.2438ZM17.1194 16L22.157 10.9624C22.4587 10.6546 22.4587 10.162 22.157 9.85425C21.851 9.54201 21.3498 9.53698 21.0376 9.84294L16 14.8805L10.9624 9.84304C10.6546 9.54143 10.162 9.54143 9.85424 9.84304C9.542 10.149 9.53697 10.6502 9.84293 10.9624L14.8805 16L9.84293 21.0376C9.69449 21.186 9.61119 21.3873 9.61109 21.5972C9.61109 22.0344 9.96547 22.3889 10.4027 22.389C10.6127 22.3893 10.8142 22.3058 10.9624 22.1571L16 17.1195L21.0376 22.1571C21.1858 22.3058 21.3873 22.3893 21.5973 22.389C21.8072 22.3889 22.0084 22.3056 22.1569 22.1573C22.4661 21.8481 22.4661 21.3468 22.157 21.0376L17.1194 16Z" fill="white"/>
</svg>
