<svg width="21" height="14" viewBox="0 0 21 14" fill="none" xmlns="http://www.w3.org/2000/svg">
<path d="M5.775 7C7.22236 7 8.4 5.78497 8.4 4.29167C8.4 2.79836 7.22236 1.58333 5.775 1.58333C4.32764 1.58333 3.15 2.79836 3.15 4.29167C3.15 5.78497 4.32764 7 5.775 7ZM17.325 2.66667H9.975C9.68494 2.66667 9.45 2.90906 9.45 3.20833V8.08333H2.1V1.04167C2.1 0.742396 1.86506 0.5 1.575 0.5H0.525C0.234937 0.5 0 0.742396 0 1.04167V12.9583C0 13.2576 0.234937 13.5 0.525 13.5H1.575C1.86506 13.5 2.1 13.2576 2.1 12.9583V11.3333H18.9V12.9583C18.9 13.2576 19.1349 13.5 19.425 13.5H20.475C20.7651 13.5 21 13.2576 21 12.9583V6.45833C21 4.36411 19.3548 2.66667 17.325 2.66667Z" fill="#545454"/>
</svg>
