<svg width="12" height="15" viewBox="0 0 12 15" fill="none" xmlns="http://www.w3.org/2000/svg">
<path d="M11.6786 13.625H11.1429V1.15625C11.1429 0.793809 10.855 0.5 10.5 0.5H1.5C1.14496 0.5 0.857143 0.793809 0.857143 1.15625V13.625H0.321429C0.14392 13.625 0 13.7719 0 13.9531V14.5H12V13.9531C12 13.7719 11.8561 13.625 11.6786 13.625ZM3.42857 2.57812C3.42857 2.39692 3.57249 2.25 3.75 2.25H4.82143C4.99894 2.25 5.14286 2.39692 5.14286 2.57812V3.67188C5.14286 3.85308 4.99894 4 4.82143 4H3.75C3.57249 4 3.42857 3.85308 3.42857 3.67188V2.57812ZM3.42857 5.20312C3.42857 5.02192 3.57249 4.875 3.75 4.875H4.82143C4.99894 4.875 5.14286 5.02192 5.14286 5.20312V6.29688C5.14286 6.47808 4.99894 6.625 4.82143 6.625H3.75C3.57249 6.625 3.42857 6.47808 3.42857 6.29688V5.20312ZM4.82143 9.25H3.75C3.57249 9.25 3.42857 9.10308 3.42857 8.92188V7.82812C3.42857 7.64692 3.57249 7.5 3.75 7.5H4.82143C4.99894 7.5 5.14286 7.64692 5.14286 7.82812V8.92188C5.14286 9.10308 4.99894 9.25 4.82143 9.25ZM6.85714 13.625H5.14286V11.3281C5.14286 11.1469 5.28678 11 5.46429 11H6.53571C6.71322 11 6.85714 11.1469 6.85714 11.3281V13.625ZM8.57143 8.92188C8.57143 9.10308 8.42751 9.25 8.25 9.25H7.17857C7.00106 9.25 6.85714 9.10308 6.85714 8.92188V7.82812C6.85714 7.64692 7.00106 7.5 7.17857 7.5H8.25C8.42751 7.5 8.57143 7.64692 8.57143 7.82812V8.92188ZM8.57143 6.29688C8.57143 6.47808 8.42751 6.625 8.25 6.625H7.17857C7.00106 6.625 6.85714 6.47808 6.85714 6.29688V5.20312C6.85714 5.02192 7.00106 4.875 7.17857 4.875H8.25C8.42751 4.875 8.57143 5.02192 8.57143 5.20312V6.29688ZM8.57143 3.67188C8.57143 3.85308 8.42751 4 8.25 4H7.17857C7.00106 4 6.85714 3.85308 6.85714 3.67188V2.57812C6.85714 2.39692 7.00106 2.25 7.17857 2.25H8.25C8.42751 2.25 8.57143 2.39692 8.57143 2.57812V3.67188Z" fill="#545454"/>
</svg>
