<svg width="11" height="13" viewBox="0 0 11 13" fill="none" xmlns="http://www.w3.org/2000/svg">
<path d="M0 11.6562C0 12.3131 0.527902 12.8461 1.17857 12.8461H9.82143C10.4721 12.8461 11 12.3131 11 11.6562V4.91342H0V11.6562ZM7.85714 6.79744C7.85714 6.63383 7.98973 6.49996 8.15179 6.49996H9.13393C9.29598 6.49996 9.42857 6.63383 9.42857 6.79744V7.78903C9.42857 7.95264 9.29598 8.0865 9.13393 8.0865H8.15179C7.98973 8.0865 7.85714 7.95264 7.85714 7.78903V6.79744ZM7.85714 9.97052C7.85714 9.8069 7.98973 9.67304 8.15179 9.67304H9.13393C9.29598 9.67304 9.42857 9.8069 9.42857 9.97052V10.9621C9.42857 11.1257 9.29598 11.2596 9.13393 11.2596H8.15179C7.98973 11.2596 7.85714 11.1257 7.85714 10.9621V9.97052ZM4.71429 6.79744C4.71429 6.63383 4.84687 6.49996 5.00893 6.49996H5.99107C6.15312 6.49996 6.28571 6.63383 6.28571 6.79744V7.78903C6.28571 7.95264 6.15312 8.0865 5.99107 8.0865H5.00893C4.84687 8.0865 4.71429 7.95264 4.71429 7.78903V6.79744ZM4.71429 9.97052C4.71429 9.8069 4.84687 9.67304 5.00893 9.67304H5.99107C6.15312 9.67304 6.28571 9.8069 6.28571 9.97052V10.9621C6.28571 11.1257 6.15312 11.2596 5.99107 11.2596H5.00893C4.84687 11.2596 4.71429 11.1257 4.71429 10.9621V9.97052ZM1.57143 6.79744C1.57143 6.63383 1.70402 6.49996 1.86607 6.49996H2.84821C3.01027 6.49996 3.14286 6.63383 3.14286 6.79744V7.78903C3.14286 7.95264 3.01027 8.0865 2.84821 8.0865H1.86607C1.70402 8.0865 1.57143 7.95264 1.57143 7.78903V6.79744ZM1.57143 9.97052C1.57143 9.8069 1.70402 9.67304 1.86607 9.67304H2.84821C3.01027 9.67304 3.14286 9.8069 3.14286 9.97052V10.9621C3.14286 11.1257 3.01027 11.2596 2.84821 11.2596H1.86607C1.70402 11.2596 1.57143 11.1257 1.57143 10.9621V9.97052ZM9.82143 1.74035H8.64286V0.550443C8.64286 0.332294 8.46607 0.153809 8.25 0.153809H7.46429C7.24821 0.153809 7.07143 0.332294 7.07143 0.550443V1.74035H3.92857V0.550443C3.92857 0.332294 3.75179 0.153809 3.53571 0.153809H2.75C2.53393 0.153809 2.35714 0.332294 2.35714 0.550443V1.74035H1.17857C0.527902 1.74035 0 2.27332 0 2.93025V4.12015H11V2.93025C11 2.27332 10.4721 1.74035 9.82143 1.74035Z" fill="white"/>
</svg>
