<svg width="26" height="28" viewBox="0 0 26 28" fill="none" xmlns="http://www.w3.org/2000/svg">
<rect width="26" height="28" rx="5" fill="white"/>
<path d="M16.4286 15.75C15.823 15.75 15.2664 15.9638 14.8271 16.3213L12.0819 14.5699C12.1632 14.1945 12.1632 13.8055 12.0819 13.4301L14.8271 11.6786C15.2664 12.0362 15.823 12.25 16.4286 12.25C17.8487 12.25 19 11.0747 19 9.625C19 8.17526 17.8487 7 16.4286 7C15.0084 7 13.8571 8.17526 13.8571 9.625C13.8571 9.82073 13.8783 10.0114 13.9181 10.1949L11.1729 11.9463C10.7336 11.5888 10.177 11.375 9.57143 11.375C8.15128 11.375 7 12.5503 7 14C7 15.4497 8.15128 16.625 9.57143 16.625C10.177 16.625 10.7336 16.4112 11.1729 16.0537L13.9181 17.8051C13.8775 17.9923 13.8571 18.1833 13.8571 18.375C13.8571 19.8247 15.0084 21 16.4286 21C17.8487 21 19 19.8247 19 18.375C19 16.9253 17.8487 15.75 16.4286 15.75Z" fill="#0D1117"/>
</svg>
