<svg width="21" height="13" viewBox="0 0 21 13" fill="none" xmlns="http://www.w3.org/2000/svg">
<path d="M5.775 6.5C7.22236 6.5 8.4 5.28497 8.4 3.79167C8.4 2.29836 7.22236 1.08333 5.775 1.08333C4.32764 1.08333 3.15 2.29836 3.15 3.79167C3.15 5.28497 4.32764 6.5 5.775 6.5ZM17.325 2.16667H9.975C9.68494 2.16667 9.45 2.40906 9.45 2.70833V7.58333H2.1V0.541667C2.1 0.242396 1.86506 0 1.575 0H0.525C0.234937 0 0 0.242396 0 0.541667V12.4583C0 12.7576 0.234937 13 0.525 13H1.575C1.86506 13 2.1 12.7576 2.1 12.4583V10.8333H18.9V12.4583C18.9 12.7576 19.1349 13 19.425 13H20.475C20.7651 13 21 12.7576 21 12.4583V5.95833C21 3.86411 19.3548 2.16667 17.325 2.16667Z" fill="#545454"/>
</svg>
