<svg width="13" height="13" viewBox="0 0 13 13" fill="none" xmlns="http://www.w3.org/2000/svg">
<path d="M11.9078 8.97962L9.28273 7.85461C9.1706 7.80681 9.04597 7.79674 8.92761 7.82591C8.80925 7.85508 8.70357 7.9219 8.62647 8.01633L7.46395 9.43666C5.63949 8.57645 4.17121 7.10817 3.31099 5.2837L4.73133 4.12118C4.82594 4.04423 4.89291 3.93855 4.92209 3.82013C4.95127 3.70172 4.94107 3.57702 4.89305 3.46492L3.76803 0.839872C3.71532 0.719028 3.6221 0.620363 3.50444 0.56089C3.38677 0.501417 3.25205 0.484864 3.12349 0.514085L0.685945 1.07659C0.561998 1.10522 0.451412 1.17501 0.372237 1.27457C0.293061 1.37414 0.249971 1.4976 0.25 1.62481C0.25 7.63663 5.12274 12.5 11.1252 12.5C11.2524 12.5001 11.376 12.457 11.4756 12.3778C11.5752 12.2987 11.645 12.188 11.6736 12.0641L12.2361 9.62651C12.2652 9.49733 12.2483 9.36206 12.1883 9.24399C12.1284 9.12593 12.0292 9.03244 11.9078 8.97962Z" fill="black"/>
</svg>
