<svg width="13" height="13" viewBox="0 0 13 13" fill="none" xmlns="http://www.w3.org/2000/svg">
<path d="M10.9527 1.93168C9.83036 0.724184 8.33571 0.0600586 6.74732 0.0600586C3.46875 0.0600586 0.800893 2.92356 0.800893 6.44256C0.800893 7.56668 1.07411 8.66493 1.59375 9.63381L0.75 12.9401L3.90268 12.0517C4.77054 12.5606 5.74821 12.8279 6.74464 12.8279H6.74732C10.0232 12.8279 12.75 9.96443 12.75 6.44543C12.75 4.74056 12.075 3.13918 10.9527 1.93168ZM6.74732 11.7527C5.85804 11.7527 4.9875 11.4968 4.22946 11.0138L4.05 10.8988L2.18036 11.4249L2.67857 9.46706L2.56071 9.26581C2.06518 8.42056 1.80536 7.44593 1.80536 6.44256C1.80536 3.51868 4.02321 1.13818 6.75 1.13818C8.07054 1.13818 9.31071 1.69018 10.2429 2.69356C11.175 3.69693 11.7482 5.02806 11.7455 6.44543C11.7455 9.37218 9.47143 11.7527 6.74732 11.7527ZM9.45804 7.77943C9.31071 7.69893 8.57946 7.31368 8.44286 7.26193C8.30625 7.20731 8.20714 7.18143 8.10804 7.34243C8.00893 7.50343 7.725 7.85993 7.63661 7.96918C7.55089 8.07556 7.4625 8.08993 7.31518 8.00943C6.44196 7.54081 5.86875 7.17281 5.29286 6.11193C5.14018 5.83018 5.44554 5.85031 5.72946 5.24081C5.77768 5.13443 5.75357 5.04243 5.71607 4.96193C5.67857 4.88143 5.38125 4.09656 5.25804 3.77743C5.1375 3.46693 5.01429 3.51006 4.92321 3.50431C4.8375 3.49856 4.73839 3.49856 4.63929 3.49856C4.54018 3.49856 4.37946 3.53881 4.24286 3.69693C4.10625 3.85793 3.72321 4.24318 3.72321 5.02806C3.72321 5.81293 4.25625 6.57193 4.32857 6.67831C4.40357 6.78468 5.37589 8.39468 6.86786 9.08756C7.81071 9.52456 8.18036 9.56193 8.65179 9.48718C8.93839 9.44118 9.53036 9.10193 9.65357 8.72818C9.77679 8.35443 9.77679 8.03531 9.73929 7.96918C9.70446 7.89731 9.60536 7.85706 9.45804 7.77943Z" fill="black"/>
</svg>
