<svg width="12" height="13" viewBox="0 0 12 13" fill="none" xmlns="http://www.w3.org/2000/svg">
<path d="M11.6786 4.78571H8.35714C8.00089 4.78571 7.71429 4.49911 7.71429 4.14286V0.821429C7.71429 0.644643 7.85893 0.5 8.03571 0.5H9.10714C9.28393 0.5 9.42857 0.644643 9.42857 0.821429V3.07143H11.6786C11.8554 3.07143 12 3.21607 12 3.39286V4.46429C12 4.64107 11.8554 4.78571 11.6786 4.78571ZM4.28571 4.14286V0.821429C4.28571 0.644643 4.14107 0.5 3.96429 0.5H2.89286C2.71607 0.5 2.57143 0.644643 2.57143 0.821429V3.07143H0.321429C0.144643 3.07143 0 3.21607 0 3.39286V4.46429C0 4.64107 0.144643 4.78571 0.321429 4.78571H3.64286C3.99911 4.78571 4.28571 4.49911 4.28571 4.14286ZM4.28571 12.1786V8.85714C4.28571 8.50089 3.99911 8.21429 3.64286 8.21429H0.321429C0.144643 8.21429 0 8.35893 0 8.53571V9.60714C0 9.78393 0.144643 9.92857 0.321429 9.92857H2.57143V12.1786C2.57143 12.3554 2.71607 12.5 2.89286 12.5H3.96429C4.14107 12.5 4.28571 12.3554 4.28571 12.1786ZM9.42857 12.1786V9.92857H11.6786C11.8554 9.92857 12 9.78393 12 9.60714V8.53571C12 8.35893 11.8554 8.21429 11.6786 8.21429H8.35714C8.00089 8.21429 7.71429 8.50089 7.71429 8.85714V12.1786C7.71429 12.3554 7.85893 12.5 8.03571 12.5H9.10714C9.28393 12.5 9.42857 12.3554 9.42857 12.1786Z" fill="#545454"/>
</svg>
